<svg width="786" height="213" viewBox="0 0 786 213" fill="none" xmlns="http://www.w3.org/2000/svg">
<path d="M47.6313 6.18925C51.4165 4.40432 57.4346 2.29851 61.0195 1.50633C64.6043 0.714139 70.9028 0.0422849 75.0384 0.00217416C79.3643 -0.0479642 86.0533 0.774305 90.8097 1.92749C95.3559 3.0205 102.445 5.50737 106.581 7.43268C110.707 9.36802 113.981 11.1429 113.841 11.3836C113.701 11.6343 109.305 10.7619 104.078 9.44824C98.8506 8.14464 90.7296 6.52016 86.0533 5.85834C81.0866 5.14637 74.1072 4.91573 69.2806 5.28676C64.7345 5.63773 56.1128 7.17196 50.1147 8.68614C44.1266 10.2003 39.5604 10.9925 39.991 10.441C40.4116 9.88946 43.8562 7.97417 47.6313 6.18925Z" fill="#070707"/>
<path d="M45.9993 17.6109C49.5841 16.2571 55.6624 14.4321 59.5176 13.5597C64.5744 12.4265 70.0118 12.0956 79.044 12.3864C86.1636 12.6271 94.1544 13.4995 97.569 14.4321C100.873 15.3245 107.863 18.1624 113.09 20.7295C121.211 24.7004 124.005 26.7962 132.186 34.9587C139.606 42.3792 142.7 46.3401 145.894 52.5573C148.167 56.9695 150.771 63.7382 151.682 67.5988C152.894 72.743 153.224 77.5663 152.904 85.6486C152.543 94.6434 151.872 98.3938 149.299 105.955C147.557 111.059 144.052 119.402 141.498 124.506C138.945 129.61 133.718 138.745 129.883 144.812C126.038 150.879 117.806 162.611 111.588 170.884C105.37 179.157 97.6391 188.944 94.4148 192.644C91.1904 196.334 85.8532 202.431 76.5306 213L71.3836 207.485C68.5498 204.446 62.762 197.908 58.5262 192.945C54.2905 187.981 46.8605 178.725 42.0339 172.388C37.1974 166.051 29.5571 155.221 25.061 148.322C20.5549 141.433 14.4266 130.823 11.4326 124.757C8.44852 118.69 4.80359 110.116 3.3316 105.704C1.15866 99.186 0.56786 95.2451 0.187345 84.6459C-0.243237 72.5124 -0.0930342 71.0584 2.39032 63.5877C3.86231 59.1756 6.92646 52.4069 9.19953 48.5462C11.4826 44.6856 16.5294 38.3481 20.4147 34.4774C24.3 30.5967 30.1779 25.7734 33.4824 23.7578C36.7868 21.7423 42.4144 18.9746 45.9993 17.6109Z" fill="#FD870B"/>
<path fill-rule="evenodd" clip-rule="evenodd" d="M343.862 64.0889H358.422L347.908 80.083L336.392 80.1331L343.862 64.0889ZM252.729 65.0916C255.182 65.0916 257.055 65.8638 258.787 67.5986C260.159 68.9824 261.291 71.2386 261.291 72.6124C261.291 73.9962 260.179 76.2524 258.827 77.6262C257.125 79.371 255.283 80.1331 252.819 80.1331C250.366 80.1331 248.493 79.361 246.771 77.6262C245.359 76.2224 244.288 73.9962 244.308 72.5623C244.338 71.1584 245.439 68.9022 246.771 67.5484C248.433 65.8537 250.286 65.0916 252.729 65.0916V65.0916ZM188.192 69.1027H204.214V144.31H188.192V69.1027ZM216.23 69.1027H232.251V144.31H216.23V69.1027ZM297.84 87.1926C300.594 87.1625 305.21 87.8143 308.104 88.6466C310.998 89.4789 314.773 91.4042 316.495 92.9184C318.228 94.4326 320.431 97.2604 321.402 99.1857C322.373 101.111 323.325 104.049 323.875 108.712L316.866 109.033C310.007 109.354 309.826 109.304 308.625 106.526C307.954 104.972 306.602 102.916 305.621 101.953C304.649 101.001 302.266 99.9679 300.344 99.6671C298.351 99.3562 295.777 99.6671 294.375 100.409C293.024 101.111 290.871 103.277 289.589 105.202C287.686 108.08 287.276 110.026 287.296 115.982C287.316 120.384 287.917 124.435 288.828 126.26C289.649 127.915 291.572 130.191 293.084 131.304C294.596 132.427 297.299 133.33 299.092 133.31C301.004 133.29 303.478 132.317 305.1 130.933C306.612 129.65 308.194 127.394 308.605 125.92C309.185 123.864 309.987 123.252 312.109 123.242C313.621 123.242 316.886 123.523 319.369 123.874C323.775 124.496 323.865 124.576 323.285 127.644C322.954 129.359 322.003 132.127 321.162 133.781C320.321 135.436 318.338 137.933 316.746 139.326C315.164 140.73 311.829 142.686 309.356 143.689C305.921 145.072 302.937 145.413 296.839 145.112C290.43 144.802 287.877 144.18 284.072 142.014C281.087 140.309 278.174 137.511 276.281 134.533C274.609 131.916 272.756 127.965 272.165 125.759C271.565 123.553 271.284 118.138 271.525 113.726C271.815 108.231 272.616 104.44 274.048 101.693C275.19 99.4866 277.633 96.2175 279.475 94.4426C281.318 92.6577 285.073 90.3112 287.827 89.2182C290.58 88.1352 295.086 87.2227 297.84 87.1926V87.1926ZM396.974 87.5436C401.63 87.9648 403.763 88.7369 406.487 90.9831C408.41 92.5775 410.893 95.4153 411.995 97.2905C413.807 100.369 414.017 102.756 414.498 144.31H398.476V106.205L395.222 103.016C392.248 100.108 391.567 99.8877 387.461 100.459C384.978 100.8 382.154 101.893 381.183 102.896C380.202 103.889 378.98 106.506 378.469 108.712C377.928 111.018 377.828 119.442 378.95 144.32L362.427 144.31V88.1553H377.448L377.388 98.6843L379.681 95.1747C380.933 93.2493 383.997 90.6121 386.47 89.3385C390.215 87.3932 391.967 87.0923 396.974 87.5436V87.5436ZM451.548 87.2127C454.021 87.1726 458.307 87.7843 461.061 88.5865C464.175 89.499 467.55 91.4845 470.003 93.861C472.166 95.9668 474.829 99.7172 475.911 102.194C477.002 104.671 478.154 109.755 479.085 120.264L440.533 120.244V122.751C440.533 124.135 441.324 126.621 442.285 128.286C443.437 130.282 445.58 131.886 448.544 132.959C452.239 134.303 453.721 134.383 456.805 133.44C458.868 132.798 461.461 131.154 462.563 129.77C464.475 127.374 464.876 127.293 478.334 128.767L477.243 131.776C476.652 133.43 474.569 136.388 472.616 138.344C470.664 140.299 466.819 142.666 464.065 143.618C461.311 144.561 456.124 145.333 452.549 145.333C448.965 145.333 444.008 144.671 441.534 143.849C439.051 143.027 435.256 140.66 433.093 138.574C430.92 136.489 428.226 132.748 427.085 130.272C425.483 126.772 425.022 123.743 425.032 116.734C425.042 109.264 425.473 106.777 427.526 102.274C428.937 99.1958 431.751 95.3652 434.024 93.4499C436.227 91.5847 440.052 89.4388 442.536 88.6767C445.009 87.9146 449.065 87.2528 451.548 87.2127V87.2127ZM440.633 108.11C440.533 110.136 440.984 110.216 452.049 110.216C462.893 110.216 463.564 110.096 463.564 108.211C463.564 107.108 461.982 104.631 460.06 102.695C457.065 99.6971 455.874 99.1857 451.949 99.1857C448.023 99.1857 446.852 99.6871 444.038 102.595C442.215 104.47 440.683 106.957 440.633 108.11ZM514.633 87.5235C519.58 87.7742 523.505 88.5965 526.149 89.9302C528.352 91.0533 531.136 93.0287 532.337 94.3223C533.539 95.6159 535.001 97.9222 535.592 99.4364C536.233 101.081 536.663 110.728 536.663 144.31H521.643L521.713 136.789L519.83 139.296C518.799 140.68 516.306 142.596 514.293 143.558C512.14 144.591 508.245 145.323 504.87 145.333C500.735 145.353 497.841 144.691 494.606 142.997C492.123 141.693 489.299 139.316 488.318 137.712C487.266 135.977 486.485 132.538 486.395 129.269C486.285 125.318 486.826 122.761 488.298 120.244C489.499 118.188 492.153 115.822 494.726 114.528C497.23 113.275 502.968 111.831 508.125 111.159C513.081 110.517 517.928 109.584 518.889 109.103C519.991 108.542 520.571 107.218 520.451 105.533C520.341 104.059 519.55 102.014 518.699 100.991C517.567 99.637 515.815 99.1256 512.38 99.1556C508.455 99.1757 507.093 99.7072 504.62 102.194C501.696 105.122 501.435 105.182 495.097 104.45C490.27 103.889 488.588 103.307 488.618 102.194C488.638 101.372 489.66 99.1556 490.881 97.2704C492.103 95.3953 494.456 92.9285 496.108 91.7953C497.76 90.6722 500.915 89.1581 503.118 88.4461C505.481 87.684 510.187 87.3029 514.633 87.5235V87.5235ZM508.375 121.317C506.312 121.828 503.939 122.921 503.118 123.754C502.287 124.586 501.596 126.501 501.586 128.015C501.566 129.529 502.347 131.555 503.338 132.498C504.51 133.641 506.763 134.242 509.947 134.252C514.022 134.283 515.244 133.811 517.707 131.274C520.071 128.848 520.641 127.384 520.641 123.754C520.641 120.073 520.321 119.271 518.889 119.381C517.928 119.452 516.005 119.712 514.633 119.943C513.251 120.184 510.438 120.795 508.375 121.317V121.317ZM605.256 87.2628C608.01 87.2027 611.955 87.6138 614.018 88.1653C616.08 88.7068 619.645 90.6221 621.938 92.417C624.231 94.212 626.895 97.2604 627.856 99.1857C628.818 101.121 629.879 104.159 630.79 109.213H623.28C617.272 109.213 615.77 108.913 615.77 107.709C615.77 106.887 614.448 104.741 612.846 102.946C610.373 100.188 609.231 99.6871 605.436 99.6871C602.372 99.6871 600.249 100.319 598.707 101.693C597.475 102.796 595.853 105.162 595.102 106.957C594.351 108.752 593.74 112.924 593.74 116.233C593.74 119.542 594.351 123.713 595.102 125.508C595.853 127.303 597.315 129.55 598.357 130.512C599.398 131.465 601.821 132.538 603.754 132.889C606.09 133.31 608.343 132.979 610.513 131.896C612.626 130.843 614.208 129.038 616.271 123.222L623.03 123.242C626.745 123.242 629.979 123.593 630.22 124.004C630.46 124.415 630.15 126.792 629.529 129.269C628.748 132.407 627.015 135.175 623.841 138.344C620.867 141.312 617.703 143.358 614.769 144.2C612.195 144.942 607.249 145.333 603.253 145.112C599.398 144.892 594.662 143.969 592.739 143.047C590.806 142.134 587.772 140.008 585.98 138.334C584.187 136.659 581.754 133.37 580.562 131.024C579.211 128.356 578.219 124.135 577.919 119.742C577.659 115.882 577.949 110.467 578.57 107.709C579.201 104.952 581.063 100.78 582.715 98.4336C584.368 96.0872 587.422 93.0287 589.485 91.6349C591.547 90.241 594.812 88.7068 596.744 88.2255C598.667 87.7542 602.502 87.313 605.256 87.2628V87.2628ZM665.337 87.1926C668.091 87.1625 672.707 87.8143 675.601 88.6466C679.466 89.7597 682.18 91.4845 685.865 95.1747C689.55 98.8648 691.272 101.582 692.384 105.453C693.215 108.351 693.886 113.535 693.886 116.985C693.876 120.685 693.075 125.408 691.933 128.517C690.711 131.836 688.388 135.285 685.675 137.852C683.301 140.089 679.326 142.726 676.853 143.709C673.408 145.082 670.444 145.403 664.336 145.072C659.609 144.822 654.983 143.959 653.071 142.977C651.278 142.054 648.124 139.557 646.061 137.431C643.948 135.255 641.475 131.194 640.403 128.156C638.911 123.904 638.601 120.926 638.971 114.227C639.302 108.241 640.063 104.51 641.535 101.693C642.686 99.4866 645.13 96.2175 646.972 94.4426C648.815 92.6577 652.57 90.3112 655.324 89.2182C658.077 88.1352 662.583 87.2227 665.337 87.1926V87.1926ZM656.205 106.456C655.213 108.451 654.583 112.242 654.583 116.233C654.583 120.384 655.213 124.024 656.315 126.26C657.266 128.196 659.009 130.552 660.19 131.505C661.392 132.478 664.095 133.25 666.338 133.28C669.162 133.31 671.065 132.648 672.777 131.044C674.109 129.79 675.801 127.303 676.532 125.508C677.253 123.713 677.854 119.542 677.854 116.233C677.854 112.924 677.253 108.752 676.522 106.957C675.801 105.162 673.879 102.665 672.266 101.412C670.614 100.118 667.991 99.1356 666.238 99.1556C664.536 99.1657 661.943 100.088 660.481 101.191C659.019 102.294 657.096 104.661 656.205 106.456V106.456ZM736.593 87.3832C739.928 87.5636 742.762 88.3959 744.604 89.7497C746.166 90.9029 748.389 93.1591 751.654 97.6816L752.805 95.4253C753.436 94.1819 755.419 92.036 757.211 90.6421C759.534 88.8372 762.178 87.9648 766.474 87.5637C771.491 87.1024 773.213 87.3932 776.978 89.3385C779.922 90.8527 782.265 93.0588 783.727 95.676C785.86 99.4866 785.97 100.78 786 144.31H770.98V125.759C770.98 112.924 770.589 106.436 769.728 104.701C769.037 103.327 767.465 101.753 766.224 101.191C764.982 100.64 762.729 100.199 761.217 100.219C759.705 100.239 757.742 100.8 756.871 101.472C756 102.144 754.758 103.708 754.117 104.952C753.356 106.426 752.956 113.616 752.956 144.31H737.935V125.759C737.935 112.152 737.575 106.476 736.573 104.45C735.822 102.936 734.471 101.352 733.569 100.941C732.668 100.529 730.575 100.188 728.923 100.188C727.171 100.188 724.767 101.201 720.412 105.022L719.911 144.31H703.889V88.1553H718.91L718.94 93.4198C718.96 97.8119 719.15 98.3534 720.071 96.6788C720.682 95.5758 721.924 93.5702 722.835 92.2165C723.746 90.8628 726.049 89.1681 727.952 88.4361C729.864 87.7141 733.75 87.2428 736.593 87.3832V87.3832ZM245.269 88.1553H260.289V144.31H245.269V88.1553ZM334.39 88.1553H349.41V144.31H334.39V88.1553ZM29.2569 125.248C29.6775 125.258 29.5874 125.819 29.0366 126.511C28.2956 127.444 29.8878 128.838 35.2651 131.956C39.2404 134.263 46.5503 137.511 51.507 139.166C56.4637 140.831 64.3444 142.696 69.0307 143.307C76.0002 144.24 79.3046 144.16 87.3054 142.866C92.6727 142.004 100.333 140.129 104.328 138.685C108.324 137.251 114.062 134.694 117.096 133.019C120.12 131.334 123.174 129.459 123.865 128.858C124.886 127.975 124.886 127.514 123.865 126.471C123.174 125.749 123.054 125.177 123.605 125.177C124.155 125.187 125.848 126.11 127.36 127.233C128.872 128.346 130.113 129.72 130.113 130.272C130.1 130.927 129.516 130.937 128.361 130.302C126.989 129.539 124.536 130.592 117.236 135.065C112.079 138.223 105.82 142.606 103.327 144.812C100.744 147.088 97.5092 151.42 95.8069 154.839C94.1647 158.148 92.4324 161.417 91.9417 162.109C91.2708 163.062 90.1693 162.701 87.3755 160.605C84.6318 158.56 82.2486 157.747 78.113 157.477C73.6169 157.176 71.5642 157.607 62.5219 162.25L60.0987 158.038C58.7669 155.732 56.4037 151.921 54.8415 149.575C52.8288 146.546 48.4529 142.977 39.7411 137.251C31.8805 132.087 26.8437 129.379 25.7222 129.73C24.7609 130.031 23.9097 129.85 23.8296 129.329C23.7595 128.807 24.7709 127.674 26.0827 126.812C27.3944 125.95 28.8264 125.248 29.2569 125.248V125.248ZM558.342 128.266C560.579 128.266 562.531 129.102 564.2 130.773C565.813 132.387 566.714 134.433 566.744 136.539C566.764 138.755 565.913 140.68 564.1 142.555C562.228 144.481 560.415 145.313 558.052 145.313C555.799 145.313 553.856 144.491 552.184 142.806C550.412 141.041 549.651 139.136 549.581 136.358C549.51 133.18 550.011 132.026 552.244 130.342C553.756 129.199 556.5 128.266 558.342 128.266Z" fill="#070707"/>
<path d="M63.0227 162.08C63.3031 161.819 65.3258 160.666 67.5288 159.523C69.882 158.299 73.4969 157.417 76.2907 157.387C78.9042 157.367 82.6793 158.139 84.682 159.101C86.6847 160.064 88.8276 161.468 89.4384 162.22C90.3096 163.283 89.9391 164.135 87.8062 165.98C86.2942 167.304 83.2501 168.828 81.0471 169.38C78.4336 170.032 75.7399 170.042 73.2866 169.41C71.2238 168.878 67.9494 167.113 66.0268 165.499C64.1042 163.875 62.7523 162.34 63.0227 162.08Z" fill="#D5161A"/>
<path d="M79.5443 40.7548C77.3413 40.9654 73.9567 40.9654 72.0341 40.7548C70.1115 40.5342 71.9039 40.3638 76.0395 40.3638C80.1751 40.3638 81.7472 40.5342 79.5443 40.7548Z" fill="#FDE0C7"/>
<path d="M31.0086 66.0948C32.2703 63.6179 35.7651 58.9852 38.7892 55.8164C41.8233 52.6477 44.4869 50.0505 44.7172 50.0505C44.9475 50.0505 44.7172 50.6121 44.1965 51.304C43.6858 51.9959 42.3039 55.1546 41.1223 58.3233C39.7304 62.0737 38.9794 66.4558 38.9694 70.8579C38.9694 75.1097 39.7304 79.8728 41.0222 83.6432C42.1537 86.9523 44.1264 91.4648 45.4081 93.6709C46.6999 95.877 50.3949 100.089 53.6292 103.037C56.8736 105.985 61.8804 109.474 64.7743 110.808C67.6682 112.142 72.3946 113.726 75.2885 114.348C78.2625 114.98 85.3321 115.27 91.5605 115.01C99.8017 114.669 104.588 113.897 110.586 111.931C114.992 110.487 118.707 109.515 118.847 109.765C118.988 110.016 116.735 112.593 113.841 115.501C110.947 118.409 105.88 122.2 102.575 123.934C99.271 125.679 93.8636 127.805 90.5592 128.667C87.2547 129.53 80.6057 130.242 75.7892 130.252C69.0301 130.272 65.2549 129.68 59.2668 127.695C55.0011 126.281 49.2934 123.684 46.5897 121.929C43.876 120.174 39.6804 116.484 37.2471 113.726C34.8138 110.969 31.7196 106.236 30.3578 103.197C28.9959 100.159 27.4338 94.7539 26.8831 91.164C26.102 86.1802 26.2021 83.0014 27.2936 77.6266C28.0847 73.7659 29.7569 68.5716 31.0086 66.0948Z" fill="#FDE0C7"/>
<path d="M47.5915 48.8068C49.7444 47.3026 54.8814 44.9562 59.0169 43.5924C64.7647 41.6972 68.7601 41.1055 76.04 41.0554C83.0494 41.0053 87.3953 41.5468 92.5623 43.1211C96.4175 44.2943 101.374 46.3199 103.577 47.6135C105.78 48.9071 110.146 52.5772 113.29 55.776C116.765 59.3158 120.19 64.1291 122.052 68.1C123.955 72.1813 125.337 77.0547 125.737 81.136C126.098 84.8663 125.867 90.0105 125.206 93.1692C124.576 96.2076 122.943 101.051 121.572 103.949C119.108 109.183 119.058 109.224 110.837 111.881C104.649 113.876 99.8121 114.669 91.561 115.009C85.3225 115.27 78.263 114.979 75.289 114.348C72.395 113.726 67.6686 112.142 64.7747 110.808C61.8808 109.474 56.8741 105.985 53.6297 103.036C50.3953 100.088 46.7003 95.8767 45.4085 93.6706C44.1268 91.4645 42.1541 86.9521 41.0226 83.6429C39.6608 79.682 38.9799 75.2197 39.0299 70.607C39.07 65.8438 39.831 61.6522 41.3831 57.571C43.1154 53.0385 44.6475 50.8825 47.5915 48.8068Z" fill="#FDFDFD"/>
<path d="M61.6899 73.7154C63.252 71.5694 66.1058 68.9723 68.0284 67.9495C70.1613 66.8163 73.5859 66.0843 76.7903 66.0943C80.0347 66.0943 83.5795 66.8564 86.0528 68.0999C88.2558 69.2029 90.9795 71.3488 92.101 72.863C93.2225 74.3772 94.6344 77.205 95.2352 79.1303C95.836 81.0657 96.0563 84.6756 95.7359 87.1525C95.4155 89.6293 94.0036 93.3596 92.6017 95.4253C91.1998 97.491 88.2558 100.088 86.0528 101.191C83.5895 102.425 80.0146 103.207 76.7903 103.207C72.7548 103.227 70.4817 102.575 67.0271 100.419C63.8428 98.4336 61.82 96.1473 60.1177 92.6276C58.1851 88.6265 57.8246 86.6711 58.2853 82.64C58.6558 79.4011 59.8674 76.2423 61.6899 73.7154Z" fill="#070707"/>
</svg>
